<?xml version="1.0" encoding="utf-8"?>
<!-- Generator: Adobe Illustrator 16.0.3, SVG Export Plug-In . SVG Version: 6.00 Build 0)  -->
<!DOCTYPE svg PUBLIC "-//W3C//DTD SVG 1.1//EN" "http://www.w3.org/Graphics/SVG/1.1/DTD/svg11.dtd">
<svg version="1.1" id="Hochschule_Mainz_Logo" xmlns="http://www.w3.org/2000/svg" xmlns:xlink="http://www.w3.org/1999/xlink"
	 x="0px" y="0px" width="200px" height="200px" viewBox="0 0 200 200" enable-background="new 0 0 200 200"
	 xml:space="preserve">
<path fill="#0080C9" d="M5,42.275c0,0,0-3.709,3.314-5.366L70.36,5.859c0,0,3.318-1.664,6.79-0.361l130.403,48.955
	c0,0,3.477,1.3,3.477,5.01v95.701c0,0,0,3.71-3.318,5.367l-62.042,31.054c0,0-3.318,1.659-3.318-2.044v-52.739
	c0,0,0-3.71-3.318-2.046l-62.042,31.049c0,0-3.314,1.662-3.314-2.046V111.02c0,0,0-3.707-3.318-2.046l-62.046,31.05
	c0,0-3.314,1.663-3.314-2.042V42.275z"/>
</svg>
